<svg version="1.1" xmlns="http://www.w3.org/2000/svg" xmlns:xlink="http://www.w3.org/1999/xlink" width="1050" height="1050"><defs/><g><rect fill="#FFFFFF" stroke="none" x="0" y="0" width="1050" height="1050"/><path fill="#000000" stroke="none" paint-order="stroke fill markers" d=" M 335 25 L 370 25 L 370 60 L 335 60 L 335 25 Z"/><path fill="#000000" stroke="none" paint-order="stroke fill markers" d=" M 404 25 L 439 25 L 439 60 L 404 60 L 404 25 Z"/><path fill="#000000" stroke="none" paint-order="stroke fill markers" d=" M 438 25 L 473 25 L 473 60 L 438 60 L 438 25 Z"/><path fill="#000000" stroke="none" paint-order="stroke fill markers" d=" M 473 25 L 508 25 L 508 43 L 508 43 A 17 17 0 0 1 491 60 L 473 60 L 473 25 Z"/><path fill="#000000" stroke="none" paint-order="stroke fill markers" d=" M 645 25 L 680 25 L 680 43 L 680 43 A 17 17 0 0 1 663 60 L 662 60 L 662 60 A 17 17 0 0 1 645 43 L 645 25 Z"/><path fill="#000000" stroke="none" paint-order="stroke fill markers" d=" M 714 25 L 749 25 L 749 43 L 749 43 A 17 17 0 0 1 732 60 L 731 60 L 731 60 A 17 17 0 0 1 714 43 L 714 25 Z"/><path fill="#000000" stroke="none" paint-order="stroke fill markers" d=" M 335 59 L 370 59 L 370 94 L 352 94 L 352 94 A 17 17 0 0 1 335 77 L 335 59 Z"/><path fill="#000000" stroke="none" paint-order="stroke fill markers" d=" M 369 59 L 404 59 L 404 94 L 369 94 L 369 59 Z"/><path fill="#000000" stroke="none" paint-order="stroke fill markers" d=" M 404 59 L 439 59 L 439 94 L 404 94 L 404 59 Z"/><path fill="#000000" stroke="none" paint-order="stroke fill markers" d=" M 438 59 L 473 59 L 473 94 L 438 94 L 438 59 Z"/><path fill="#000000" stroke="none" paint-order="stroke fill markers" d=" M 524 59 L 542 59 L 542 94 L 524 94 L 524 94 A 17 17 0 0 1 507 77 L 507 76 L 507 76 A 17 17 0 0 1 524 59 Z"/><path fill="#000000" stroke="none" paint-order="stroke fill markers" d=" M 542 59 L 560 59 L 560 59 A 17 17 0 0 1 577 76 L 577 77 L 577 77 A 17 17 0 0 1 560 94 L 542 94 L 542 59 Z"/><path fill="#000000" stroke="none" paint-order="stroke fill markers" d=" M 714.5 76.5 A 17 17 0 1 1 714.4999915000008 76.48300000283332 Z"/><path fill="#000000" stroke="none" paint-order="stroke fill markers" d=" M 334.5 110.5 A 17 17 0 1 1 334.4999915000007 110.48300000283332 Z"/><path fill="#000000" stroke="none" paint-order="stroke fill markers" d=" M 369 93 L 404 93 L 404 111 L 404 111 A 17 17 0 0 1 387 128 L 386 128 L 386 128 A 17 17 0 0 1 369 111 L 369 93 Z"/><path fill="#000000" stroke="none" paint-order="stroke fill markers" d=" M 438 93 L 473 93 L 473 128 L 455 128 L 455 128 A 17 17 0 0 1 438 111 L 438 93 Z"/><path fill="#000000" stroke="none" paint-order="stroke fill markers" d=" M 473 93 L 491 93 L 491 93 A 17 17 0 0 1 508 110 L 508 128 L 473 128 L 473 93 Z"/><path fill="#000000" stroke="none" paint-order="stroke fill markers" d=" M 628 93 L 646 93 L 646 128 L 628 128 L 628 128 A 17 17 0 0 1 611 111 L 611 110 L 611 110 A 17 17 0 0 1 628 93 Z"/><path fill="#000000" stroke="none" paint-order="stroke fill markers" d=" M 645 93 L 663 93 L 663 93 A 17 17 0 0 1 680 110 L 680 128 L 645 128 L 645 93 Z"/><path fill="#000000" stroke="none" paint-order="stroke fill markers" d=" M 748.5 110.5 A 17 17 0 1 1 748.4999915000008 110.48300000283332 Z"/><path fill="#000000" stroke="none" paint-order="stroke fill markers" d=" M 352 128 L 353 128 L 353 128 A 17 17 0 0 1 370 145 L 370 163 L 335 163 L 335 145 L 335 145 A 17 17 0 0 1 352 128 Z"/><path fill="#000000" stroke="none" paint-order="stroke fill markers" d=" M 473 128 L 508 128 L 508 163 L 490 163 L 490 163 A 17 17 0 0 1 473 146 L 473 128 Z"/><path fill="#000000" stroke="none" paint-order="stroke fill markers" d=" M 507 128 L 542 128 L 542 163 L 507 163 L 507 128 Z"/><path fill="#000000" stroke="none" paint-order="stroke fill markers" d=" M 542 128 L 560 128 L 560 128 A 17 17 0 0 1 577 145 L 577 163 L 542 163 L 542 128 Z"/><path fill="#000000" stroke="none" paint-order="stroke fill markers" d=" M 645 128 L 680 128 L 680 163 L 662 163 L 662 163 A 17 17 0 0 1 645 146 L 645 128 Z"/><path fill="#000000" stroke="none" paint-order="stroke fill markers" d=" M 680 128 L 698 128 L 698 128 A 17 17 0 0 1 715 145 L 715 146 L 715 146 A 17 17 0 0 1 698 163 L 680 163 L 680 128 Z"/><path fill="#000000" stroke="none" paint-order="stroke fill markers" d=" M 317 162 L 335 162 L 335 197 L 300 197 L 300 179 L 300 179 A 17 17 0 0 1 317 162 Z"/><path fill="#000000" stroke="none" paint-order="stroke fill markers" d=" M 335 162 L 370 162 L 370 197 L 335 197 L 335 162 Z"/><path fill="#000000" stroke="none" paint-order="stroke fill markers" d=" M 369 162 L 387 162 L 387 162 A 17 17 0 0 1 404 179 L 404 180 L 404 180 A 17 17 0 0 1 387 197 L 369 197 L 369 162 Z"/><path fill="#000000" stroke="none" paint-order="stroke fill markers" d=" M 472.5 179.5 A 17 17 0 1 1 472.4999915000007 179.48300000283334 Z"/><path fill="#000000" stroke="none" paint-order="stroke fill markers" d=" M 542 162 L 577 162 L 577 197 L 542 197 L 542 162 Z"/><path fill="#000000" stroke="none" paint-order="stroke fill markers" d=" M 576 162 L 611 162 L 611 197 L 576 197 L 576 162 Z"/><path fill="#000000" stroke="none" paint-order="stroke fill markers" d=" M 611 162 L 629 162 L 629 162 A 17 17 0 0 1 646 179 L 646 197 L 611 197 L 611 162 Z"/><path fill="#000000" stroke="none" paint-order="stroke fill markers" d=" M 300 197 L 335 197 L 335 232 L 300 232 L 300 197 Z"/><path fill="#000000" stroke="none" paint-order="stroke fill markers" d=" M 490 197 L 508 197 L 508 232 L 490 232 L 490 232 A 17 17 0 0 1 473 215 L 473 214 L 473 214 A 17 17 0 0 1 490 197 Z"/><path fill="#000000" stroke="none" paint-order="stroke fill markers" d=" M 507 197 L 542 197 L 542 232 L 507 232 L 507 197 Z"/><path fill="#000000" stroke="none" paint-order="stroke fill markers" d=" M 542 197 L 577 197 L 577 232 L 542 232 L 542 197 Z"/><path fill="#000000" stroke="none" paint-order="stroke fill markers" d=" M 576 197 L 611 197 L 611 232 L 576 232 L 576 197 Z"/><path fill="#000000" stroke="none" paint-order="stroke fill markers" d=" M 611 197 L 646 197 L 646 215 L 646 215 A 17 17 0 0 1 629 232 L 611 232 L 611 197 Z"/><path fill="#000000" stroke="none" paint-order="stroke fill markers" d=" M 697 197 L 715 197 L 715 232 L 697 232 L 697 232 A 17 17 0 0 1 680 215 L 680 214 L 680 214 A 17 17 0 0 1 697 197 Z"/><path fill="#000000" stroke="none" paint-order="stroke fill markers" d=" M 714 197 L 732 197 L 732 197 A 17 17 0 0 1 749 214 L 749 232 L 714 232 L 714 197 Z"/><path fill="#000000" stroke="none" paint-order="stroke fill markers" d=" M 300 231 L 335 231 L 335 249 L 335 249 A 17 17 0 0 1 318 266 L 317 266 L 317 266 A 17 17 0 0 1 300 249 L 300 231 Z"/><path fill="#000000" stroke="none" paint-order="stroke fill markers" d=" M 403.5 248.5 A 17 17 0 1 1 403.4999915000007 248.48300000283334 Z"/><path fill="#000000" stroke="none" paint-order="stroke fill markers" d=" M 455 231 L 456 231 L 456 231 A 17 17 0 0 1 473 248 L 473 266 L 438 266 L 438 248 L 438 248 A 17 17 0 0 1 455 231 Z"/><path fill="#000000" stroke="none" paint-order="stroke fill markers" d=" M 507 231 L 542 231 L 542 266 L 507 266 L 507 231 Z"/><path fill="#000000" stroke="none" paint-order="stroke fill markers" d=" M 576 231 L 611 231 L 611 266 L 576 266 L 576 231 Z"/><path fill="#000000" stroke="none" paint-order="stroke fill markers" d=" M 662 231 L 663 231 L 663 231 A 17 17 0 0 1 680 248 L 680 266 L 645 266 L 645 248 L 645 248 A 17 17 0 0 1 662 231 Z"/><path fill="#000000" stroke="none" paint-order="stroke fill markers" d=" M 714 231 L 749 231 L 749 249 L 749 249 A 17 17 0 0 1 732 266 L 731 266 L 731 266 A 17 17 0 0 1 714 249 L 714 231 Z"/><path fill="#000000" stroke="none" paint-order="stroke fill markers" d=" M 438 266 L 473 266 L 473 284 L 473 284 A 17 17 0 0 1 456 301 L 455 301 L 455 301 A 17 17 0 0 1 438 284 L 438 266 Z"/><path fill="#000000" stroke="none" paint-order="stroke fill markers" d=" M 507 266 L 542 266 L 542 284 L 542 284 A 17 17 0 0 1 525 301 L 524 301 L 524 301 A 17 17 0 0 1 507 284 L 507 266 Z"/><path fill="#000000" stroke="none" paint-order="stroke fill markers" d=" M 576 266 L 611 266 L 611 301 L 576 301 L 576 266 Z"/><path fill="#000000" stroke="none" paint-order="stroke fill markers" d=" M 611 266 L 646 266 L 646 301 L 611 301 L 611 266 Z"/><path fill="#000000" stroke="none" paint-order="stroke fill markers" d=" M 645 266 L 680 266 L 680 301 L 645 301 L 645 266 Z"/><path fill="#000000" stroke="none" paint-order="stroke fill markers" d=" M 680 266 L 698 266 L 698 266 A 17 17 0 0 1 715 283 L 715 301 L 680 301 L 680 266 Z"/><path fill="#000000" stroke="none" paint-order="stroke fill markers" d=" M 76 300 L 77 300 L 77 300 A 17 17 0 0 1 94 317 L 94 335 L 59 335 L 59 317 L 59 317 A 17 17 0 0 1 76 300 Z"/><path fill="#000000" stroke="none" paint-order="stroke fill markers" d=" M 179 300 L 180 300 L 180 300 A 17 17 0 0 1 197 317 L 197 335 L 162 335 L 162 317 L 162 317 A 17 17 0 0 1 179 300 Z"/><path fill="#000000" stroke="none" paint-order="stroke fill markers" d=" M 265.5 317.5 A 17 17 0 1 1 265.4999915000007 317.4830000028333 Z"/><path fill="#000000" stroke="none" paint-order="stroke fill markers" d=" M 317 300 L 335 300 L 335 335 L 300 335 L 300 317 L 300 317 A 17 17 0 0 1 317 300 Z"/><path fill="#000000" stroke="none" paint-order="stroke fill markers" d=" M 335 300 L 353 300 L 353 300 A 17 17 0 0 1 370 317 L 370 335 L 335 335 L 335 300 Z"/><path fill="#000000" stroke="none" paint-order="stroke fill markers" d=" M 421 300 L 422 300 L 422 300 A 17 17 0 0 1 439 317 L 439 335 L 404 335 L 404 317 L 404 317 A 17 17 0 0 1 421 300 Z"/><path fill="#000000" stroke="none" paint-order="stroke fill markers" d=" M 490 300 L 491 300 L 491 300 A 17 17 0 0 1 508 317 L 508 335 L 473 335 L 473 317 L 473 317 A 17 17 0 0 1 490 300 Z"/><path fill="#000000" stroke="none" paint-order="stroke fill markers" d=" M 576 300 L 611 300 L 611 318 L 611 318 A 17 17 0 0 1 594 335 L 593 335 L 593 335 A 17 17 0 0 1 576 318 L 576 300 Z"/><path fill="#000000" stroke="none" paint-order="stroke fill markers" d=" M 645 300 L 680 300 L 680 335 L 645 335 L 645 300 Z"/><path fill="#000000" stroke="none" paint-order="stroke fill markers" d=" M 680 300 L 715 300 L 715 335 L 680 335 L 680 300 Z"/><path fill="#000000" stroke="none" paint-order="stroke fill markers" d=" M 714 300 L 749 300 L 749 335 L 714 335 L 714 300 Z"/><path fill="#000000" stroke="none" paint-order="stroke fill markers" d=" M 749 300 L 767 300 L 767 300 A 17 17 0 0 1 784 317 L 784 335 L 749 335 L 749 300 Z"/><path fill="#000000" stroke="none" paint-order="stroke fill markers" d=" M 835 300 L 853 300 L 853 335 L 818 335 L 818 317 L 818 317 A 17 17 0 0 1 835 300 Z"/><path fill="#000000" stroke="none" paint-order="stroke fill markers" d=" M 852 300 L 870 300 L 870 300 A 17 17 0 0 1 887 317 L 887 335 L 852 335 L 852 300 Z"/><path fill="#000000" stroke="none" paint-order="stroke fill markers" d=" M 955.5 317.5 A 17 17 0 1 1 955.4999915000008 317.4830000028333 Z"/><path fill="#000000" stroke="none" paint-order="stroke fill markers" d=" M 25 335 L 60 335 L 60 370 L 25 370 L 25 335 Z"/><path fill="#000000" stroke="none" paint-order="stroke fill markers" d=" M 59 335 L 94 335 L 94 353 L 94 353 A 17 17 0 0 1 77 370 L 59 370 L 59 335 Z"/><path fill="#000000" stroke="none" paint-order="stroke fill markers" d=" M 145 335 L 163 335 L 163 370 L 145 370 L 145 370 A 17 17 0 0 1 128 353 L 128 352 L 128 352 A 17 17 0 0 1 145 335 Z"/><path fill="#000000" stroke="none" paint-order="stroke fill markers" d=" M 162 335 L 197 335 L 197 353 L 197 353 A 17 17 0 0 1 180 370 L 162 370 L 162 335 Z"/><path fill="#000000" stroke="none" paint-order="stroke fill markers" d=" M 300 335 L 335 335 L 335 370 L 300 370 L 300 335 Z"/><path fill="#000000" stroke="none" paint-order="stroke fill markers" d=" M 335 335 L 370 335 L 370 370 L 335 370 L 335 335 Z"/><path fill="#000000" stroke="none" paint-order="stroke fill markers" d=" M 369 335 L 404 335 L 404 370 L 369 370 L 369 335 Z"/><path fill="#000000" stroke="none" paint-order="stroke fill markers" d=" M 404 335 L 439 335 L 439 370 L 404 370 L 404 335 Z"/><path fill="#000000" stroke="none" paint-order="stroke fill markers" d=" M 438 335 L 473 335 L 473 370 L 438 370 L 438 335 Z"/><path fill="#000000" stroke="none" paint-order="stroke fill markers" d=" M 473 335 L 508 335 L 508 370 L 473 370 L 473 335 Z"/><path fill="#000000" stroke="none" paint-order="stroke fill markers" d=" M 507 335 L 542 335 L 542 370 L 507 370 L 507 335 Z"/><path fill="#000000" stroke="none" paint-order="stroke fill markers" d=" M 542 335 L 560 335 L 560 335 A 17 17 0 0 1 577 352 L 577 370 L 542 370 L 542 335 Z"/><path fill="#000000" stroke="none" paint-order="stroke fill markers" d=" M 645 335 L 680 335 L 680 353 L 680 353 A 17 17 0 0 1 663 370 L 662 370 L 662 370 A 17 17 0 0 1 645 353 L 645 335 Z"/><path fill="#000000" stroke="none" paint-order="stroke fill markers" d=" M 749 335 L 784 335 L 784 370 L 749 370 L 749 335 Z"/><path fill="#000000" stroke="none" paint-order="stroke fill markers" d=" M 783 335 L 818 335 L 818 370 L 783 370 L 783 335 Z"/><path fill="#000000" stroke="none" paint-order="stroke fill markers" d=" M 818 335 L 853 335 L 853 370 L 818 370 L 818 335 Z"/><path fill="#000000" stroke="none" paint-order="stroke fill markers" d=" M 852 335 L 887 335 L 887 370 L 852 370 L 852 335 Z"/><path fill="#000000" stroke="none" paint-order="stroke fill markers" d=" M 973 335 L 991 335 L 991 370 L 973 370 L 973 370 A 17 17 0 0 1 956 353 L 956 352 L 956 352 A 17 17 0 0 1 973 335 Z"/><path fill="#000000" stroke="none" paint-order="stroke fill markers" d=" M 990 335 L 1025 335 L 1025 370 L 990 370 L 990 335 Z"/><path fill="#000000" stroke="none" paint-order="stroke fill markers" d=" M 110 369 L 111 369 L 111 369 A 17 17 0 0 1 128 386 L 128 404 L 93 404 L 93 386 L 93 386 A 17 17 0 0 1 110 369 Z"/><path fill="#000000" stroke="none" paint-order="stroke fill markers" d=" M 214 369 L 232 369 L 232 404 L 197 404 L 197 386 L 197 386 A 17 17 0 0 1 214 369 Z"/><path fill="#000000" stroke="none" paint-order="stroke fill markers" d=" M 231 369 L 249 369 L 249 369 A 17 17 0 0 1 266 386 L 266 387 L 266 387 A 17 17 0 0 1 249 404 L 231 404 L 231 369 Z"/><path fill="#000000" stroke="none" paint-order="stroke fill markers" d=" M 300 369 L 335 369 L 335 404 L 317 404 L 317 404 A 17 17 0 0 1 300 387 L 300 369 Z"/><path fill="#000000" stroke="none" paint-order="stroke fill markers" d=" M 335 369 L 370 369 L 370 404 L 335 404 L 335 369 Z"/><path fill="#000000" stroke="none" paint-order="stroke fill markers" d=" M 404 369 L 439 369 L 439 404 L 404 404 L 404 369 Z"/><path fill="#000000" stroke="none" paint-order="stroke fill markers" d=" M 542 369 L 577 369 L 577 404 L 542 404 L 542 369 Z"/><path fill="#000000" stroke="none" paint-order="stroke fill markers" d=" M 731 369 L 749 369 L 749 404 L 714 404 L 714 386 L 714 386 A 17 17 0 0 1 731 369 Z"/><path fill="#000000" stroke="none" paint-order="stroke fill markers" d=" M 749 369 L 784 369 L 784 404 L 749 404 L 749 369 Z"/><path fill="#000000" stroke="none" paint-order="stroke fill markers" d=" M 818 369 L 853 369 L 853 404 L 835 404 L 835 404 A 17 17 0 0 1 818 387 L 818 369 Z"/><path fill="#000000" stroke="none" paint-order="stroke fill markers" d=" M 852 369 L 887 369 L 887 404 L 852 404 L 852 369 Z"/><path fill="#000000" stroke="none" paint-order="stroke fill markers" d=" M 887 369 L 922 369 L 922 404 L 887 404 L 887 369 Z"/><path fill="#000000" stroke="none" paint-order="stroke fill markers" d=" M 921 369 L 939 369 L 939 369 A 17 17 0 0 1 956 386 L 956 387 L 956 387 A 17 17 0 0 1 939 404 L 921 404 L 921 369 Z"/><path fill="#000000" stroke="none" paint-order="stroke fill markers" d=" M 990 369 L 1025 369 L 1025 404 L 990 404 L 990 369 Z"/><path fill="#000000" stroke="none" paint-order="stroke fill markers" d=" M 76 404 L 94 404 L 94 439 L 59 439 L 59 421 L 59 421 A 17 17 0 0 1 76 404 Z"/><path fill="#000000" stroke="none" paint-order="stroke fill markers" d=" M 93 404 L 128 404 L 128 439 L 93 439 L 93 404 Z"/><path fill="#000000" stroke="none" paint-order="stroke fill markers" d=" M 128 404 L 146 404 L 146 404 A 17 17 0 0 1 163 421 L 163 439 L 128 439 L 128 404 Z"/><path fill="#000000" stroke="none" paint-order="stroke fill markers" d=" M 197 404 L 232 404 L 232 422 L 232 422 A 17 17 0 0 1 215 439 L 214 439 L 214 439 A 17 17 0 0 1 197 422 L 197 404 Z"/><path fill="#000000" stroke="none" paint-order="stroke fill markers" d=" M 300.5 421.5 A 17 17 0 1 1 300.4999915000007 421.4830000028333 Z"/><path fill="#000000" stroke="none" paint-order="stroke fill markers" d=" M 335 404 L 370 404 L 370 439 L 335 439 L 335 404 Z"/><path fill="#000000" stroke="none" paint-order="stroke fill markers" d=" M 369 404 L 404 404 L 404 439 L 369 439 L 369 404 Z"/><path fill="#000000" stroke="none" paint-order="stroke fill markers" d=" M 404 404 L 439 404 L 439 439 L 404 439 L 404 404 Z"/><path fill="#000000" stroke="none" paint-order="stroke fill markers" d=" M 438 404 L 473 404 L 473 439 L 438 439 L 438 404 Z"/><path fill="#000000" stroke="none" paint-order="stroke fill markers" d=" M 473 404 L 508 404 L 508 439 L 473 439 L 473 404 Z"/><path fill="#000000" stroke="none" paint-order="stroke fill markers" d=" M 507 404 L 542 404 L 542 439 L 507 439 L 507 404 Z"/><path fill="#000000" stroke="none" paint-order="stroke fill markers" d=" M 542 404 L 577 404 L 577 439 L 542 439 L 542 404 Z"/><path fill="#000000" stroke="none" paint-order="stroke fill markers" d=" M 576 404 L 611 404 L 611 439 L 576 439 L 576 404 Z"/><path fill="#000000" stroke="none" paint-order="stroke fill markers" d=" M 611 404 L 646 404 L 646 439 L 611 439 L 611 404 Z"/><path fill="#000000" stroke="none" paint-order="stroke fill markers" d=" M 645 404 L 680 404 L 680 439 L 645 439 L 645 404 Z"/><path fill="#000000" stroke="none" paint-order="stroke fill markers" d=" M 680 404 L 715 404 L 715 439 L 680 439 L 680 404 Z"/><path fill="#000000" stroke="none" paint-order="stroke fill markers" d=" M 714 404 L 749 404 L 749 439 L 714 439 L 714 404 Z"/><path fill="#000000" stroke="none" paint-order="stroke fill markers" d=" M 749 404 L 784 404 L 784 422 L 784 422 A 17 17 0 0 1 767 439 L 749 439 L 749 404 Z"/><path fill="#000000" stroke="none" paint-order="stroke fill markers" d=" M 852 404 L 887 404 L 887 439 L 869 439 L 869 439 A 17 17 0 0 1 852 422 L 852 404 Z"/><path fill="#000000" stroke="none" paint-order="stroke fill markers" d=" M 887 404 L 922 404 L 922 439 L 887 439 L 887 404 Z"/><path fill="#000000" stroke="none" paint-order="stroke fill markers" d=" M 973 404 L 991 404 L 991 439 L 973 439 L 973 439 A 17 17 0 0 1 956 422 L 956 421 L 956 421 A 17 17 0 0 1 973 404 Z"/><path fill="#000000" stroke="none" paint-order="stroke fill markers" d=" M 990 404 L 1025 404 L 1025 439 L 990 439 L 990 404 Z"/><path fill="#000000" stroke="none" paint-order="stroke fill markers" d=" M 25 438 L 60 438 L 60 473 L 25 473 L 25 438 Z"/><path fill="#000000" stroke="none" paint-order="stroke fill markers" d=" M 59 438 L 94 438 L 94 473 L 59 473 L 59 438 Z"/><path fill="#000000" stroke="none" paint-order="stroke fill markers" d=" M 128 438 L 163 438 L 163 473 L 128 473 L 128 438 Z"/><path fill="#000000" stroke="none" paint-order="stroke fill markers" d=" M 162 438 L 180 438 L 180 438 A 17 17 0 0 1 197 455 L 197 456 L 197 456 A 17 17 0 0 1 180 473 L 162 473 L 162 438 Z"/><path fill="#000000" stroke="none" paint-order="stroke fill markers" d=" M 265.5 455.5 A 17 17 0 1 1 265.4999915000007 455.4830000028333 Z"/><path fill="#000000" stroke="none" paint-order="stroke fill markers" d=" M 317 438 L 335 438 L 335 473 L 317 473 L 317 473 A 17 17 0 0 1 300 456 L 300 455 L 300 455 A 17 17 0 0 1 317 438 Z"/><path fill="#000000" stroke="none" paint-order="stroke fill markers" d=" M 335 438 L 370 438 L 370 473 L 335 473 L 335 438 Z"/><path fill="#000000" stroke="none" paint-order="stroke fill markers" d=" M 369 438 L 404 438 L 404 473 L 369 473 L 369 438 Z"/><path fill="#000000" stroke="none" paint-order="stroke fill markers" d=" M 404 438 L 439 438 L 439 473 L 404 473 L 404 438 Z"/><path fill="#000000" stroke="none" paint-order="stroke fill markers" d=" M 438 438 L 473 438 L 473 456 L 473 456 A 17 17 0 0 1 456 473 L 438 473 L 438 438 Z"/><path fill="#000000" stroke="none" paint-order="stroke fill markers" d=" M 611 438 L 646 438 L 646 473 L 611 473 L 611 438 Z"/><path fill="#000000" stroke="none" paint-order="stroke fill markers" d=" M 852.5 455.5 A 17 17 0 1 1 852.4999915000008 455.4830000028333 Z"/><path fill="#000000" stroke="none" paint-order="stroke fill markers" d=" M 887 438 L 922 438 L 922 456 L 922 456 A 17 17 0 0 1 905 473 L 904 473 L 904 473 A 17 17 0 0 1 887 456 L 887 438 Z"/><path fill="#000000" stroke="none" paint-order="stroke fill markers" d=" M 990 438 L 1025 438 L 1025 473 L 990 473 L 990 438 Z"/><path fill="#000000" stroke="none" paint-order="stroke fill markers" d=" M 59 473 L 94 473 L 94 491 L 94 491 A 17 17 0 0 1 77 508 L 76 508 L 76 508 A 17 17 0 0 1 59 491 L 59 473 Z"/><path fill="#000000" stroke="none" paint-order="stroke fill markers" d=" M 128 473 L 163 473 L 163 508 L 128 508 L 128 473 Z"/><path fill="#000000" stroke="none" paint-order="stroke fill markers" d=" M 214 473 L 215 473 L 215 473 A 17 17 0 0 1 232 490 L 232 508 L 197 508 L 197 490 L 197 490 A 17 17 0 0 1 214 473 Z"/><path fill="#000000" stroke="none" paint-order="stroke fill markers" d=" M 283 473 L 284 473 L 284 473 A 17 17 0 0 1 301 490 L 301 508 L 266 508 L 266 490 L 266 490 A 17 17 0 0 1 283 473 Z"/><path fill="#000000" stroke="none" paint-order="stroke fill markers" d=" M 593 473 L 611 473 L 611 508 L 576 508 L 576 490 L 576 490 A 17 17 0 0 1 593 473 Z"/><path fill="#000000" stroke="none" paint-order="stroke fill markers" d=" M 611 473 L 646 473 L 646 491 L 646 491 A 17 17 0 0 1 629 508 L 611 508 L 611 473 Z"/><path fill="#000000" stroke="none" paint-order="stroke fill markers" d=" M 800 473 L 801 473 L 801 473 A 17 17 0 0 1 818 490 L 818 508 L 783 508 L 783 490 L 783 490 A 17 17 0 0 1 800 473 Z"/><path fill="#000000" stroke="none" paint-order="stroke fill markers" d=" M 869 473 L 870 473 L 870 473 A 17 17 0 0 1 887 490 L 887 508 L 852 508 L 852 490 L 852 490 A 17 17 0 0 1 869 473 Z"/><path fill="#000000" stroke="none" paint-order="stroke fill markers" d=" M 955.5 490.5 A 17 17 0 1 1 955.4999915000008 490.4830000028333 Z"/><path fill="#000000" stroke="none" paint-order="stroke fill markers" d=" M 990 473 L 1025 473 L 1025 508 L 990 508 L 990 473 Z"/><path fill="#000000" stroke="none" paint-order="stroke fill markers" d=" M 25 507 L 43 507 L 43 507 A 17 17 0 0 1 60 524 L 60 542 L 25 542 L 25 507 Z"/><path fill="#000000" stroke="none" paint-order="stroke fill markers" d=" M 110 507 L 128 507 L 128 542 L 110 542 L 110 542 A 17 17 0 0 1 93 525 L 93 524 L 93 524 A 17 17 0 0 1 110 507 Z"/><path fill="#000000" stroke="none" paint-order="stroke fill markers" d=" M 128 507 L 163 507 L 163 542 L 128 542 L 128 507 Z"/><path fill="#000000" stroke="none" paint-order="stroke fill markers" d=" M 162 507 L 197 507 L 197 542 L 162 542 L 162 507 Z"/><path fill="#000000" stroke="none" paint-order="stroke fill markers" d=" M 197 507 L 232 507 L 232 542 L 197 542 L 197 507 Z"/><path fill="#000000" stroke="none" paint-order="stroke fill markers" d=" M 231 507 L 266 507 L 266 542 L 231 542 L 231 507 Z"/><path fill="#000000" stroke="none" paint-order="stroke fill markers" d=" M 266 507 L 301 507 L 301 542 L 266 542 L 266 507 Z"/><path fill="#000000" stroke="none" paint-order="stroke fill markers" d=" M 300 507 L 318 507 L 318 507 A 17 17 0 0 1 335 524 L 335 525 L 335 525 A 17 17 0 0 1 318 542 L 300 542 L 300 507 Z"/><path fill="#000000" stroke="none" paint-order="stroke fill markers" d=" M 490 507 L 508 507 L 508 542 L 473 542 L 473 524 L 473 524 A 17 17 0 0 1 490 507 Z"/><path fill="#000000" stroke="none" paint-order="stroke fill markers" d=" M 507 507 L 542 507 L 542 542 L 507 542 L 507 507 Z"/><path fill="#000000" stroke="none" paint-order="stroke fill markers" d=" M 542 507 L 577 507 L 577 542 L 542 542 L 542 507 Z"/><path fill="#000000" stroke="none" paint-order="stroke fill markers" d=" M 576 507 L 611 507 L 611 542 L 576 542 L 576 507 Z"/><path fill="#000000" stroke="none" paint-order="stroke fill markers" d=" M 679.5 524.5 A 17 17 0 1 1 679.4999915000008 524.4830000028334 Z"/><path fill="#000000" stroke="none" paint-order="stroke fill markers" d=" M 766 507 L 784 507 L 784 542 L 766 542 L 766 542 A 17 17 0 0 1 749 525 L 749 524 L 749 524 A 17 17 0 0 1 766 507 Z"/><path fill="#000000" stroke="none" paint-order="stroke fill markers" d=" M 783 507 L 818 507 L 818 525 L 818 525 A 17 17 0 0 1 801 542 L 783 542 L 783 507 Z"/><path fill="#000000" stroke="none" paint-order="stroke fill markers" d=" M 852 507 L 887 507 L 887 525 L 887 525 A 17 17 0 0 1 870 542 L 869 542 L 869 542 A 17 17 0 0 1 852 525 L 852 507 Z"/><path fill="#000000" stroke="none" paint-order="stroke fill markers" d=" M 990 507 L 1025 507 L 1025 542 L 1007 542 L 1007 542 A 17 17 0 0 1 990 525 L 990 507 Z"/><path fill="#000000" stroke="none" paint-order="stroke fill markers" d=" M 25 542 L 60 542 L 60 560 L 60 560 A 17 17 0 0 1 43 577 L 25 577 L 25 542 Z"/><path fill="#000000" stroke="none" paint-order="stroke fill markers" d=" M 421 542 L 422 542 L 422 542 A 17 17 0 0 1 439 559 L 439 577 L 404 577 L 404 559 L 404 559 A 17 17 0 0 1 421 542 Z"/><path fill="#000000" stroke="none" paint-order="stroke fill markers" d=" M 473 542 L 508 542 L 508 577 L 473 577 L 473 542 Z"/><path fill="#000000" stroke="none" paint-order="stroke fill markers" d=" M 576 542 L 611 542 L 611 577 L 576 577 L 576 542 Z"/><path fill="#000000" stroke="none" paint-order="stroke fill markers" d=" M 852.5 559.5 A 17 17 0 1 1 852.4999915000008 559.4830000028334 Z"/><path fill="#000000" stroke="none" paint-order="stroke fill markers" d=" M 921.5 559.5 A 17 17 0 1 1 921.4999915000008 559.4830000028334 Z"/><path fill="#000000" stroke="none" paint-order="stroke fill markers" d=" M 76 576 L 77 576 L 77 576 A 17 17 0 0 1 94 593 L 94 611 L 59 611 L 59 593 L 59 593 A 17 17 0 0 1 76 576 Z"/><path fill="#000000" stroke="none" paint-order="stroke fill markers" d=" M 162.5 593.5 A 17 17 0 1 1 162.4999915000007 593.4830000028334 Z"/><path fill="#000000" stroke="none" paint-order="stroke fill markers" d=" M 265.5 593.5 A 17 17 0 1 1 265.4999915000007 593.4830000028334 Z"/><path fill="#000000" stroke="none" paint-order="stroke fill markers" d=" M 317 576 L 318 576 L 318 576 A 17 17 0 0 1 335 593 L 335 611 L 300 611 L 300 593 L 300 593 A 17 17 0 0 1 317 576 Z"/><path fill="#000000" stroke="none" paint-order="stroke fill markers" d=" M 386 576 L 404 576 L 404 611 L 369 611 L 369 593 L 369 593 A 17 17 0 0 1 386 576 Z"/><path fill="#000000" stroke="none" paint-order="stroke fill markers" d=" M 404 576 L 439 576 L 439 611 L 404 611 L 404 576 Z"/><path fill="#000000" stroke="none" paint-order="stroke fill markers" d=" M 438 576 L 473 576 L 473 611 L 438 611 L 438 576 Z"/><path fill="#000000" stroke="none" paint-order="stroke fill markers" d=" M 473 576 L 508 576 L 508 611 L 473 611 L 473 576 Z"/><path fill="#000000" stroke="none" paint-order="stroke fill markers" d=" M 507 576 L 542 576 L 542 611 L 507 611 L 507 576 Z"/><path fill="#000000" stroke="none" paint-order="stroke fill markers" d=" M 542 576 L 577 576 L 577 611 L 542 611 L 542 576 Z"/><path fill="#000000" stroke="none" paint-order="stroke fill markers" d=" M 576 576 L 611 576 L 611 594 L 611 594 A 17 17 0 0 1 594 611 L 576 611 L 576 576 Z"/><path fill="#000000" stroke="none" paint-order="stroke fill markers" d=" M 697 576 L 715 576 L 715 611 L 697 611 L 697 611 A 17 17 0 0 1 680 594 L 680 593 L 680 593 A 17 17 0 0 1 697 576 Z"/><path fill="#000000" stroke="none" paint-order="stroke fill markers" d=" M 714 576 L 732 576 L 732 576 A 17 17 0 0 1 749 593 L 749 594 L 749 594 A 17 17 0 0 1 732 611 L 714 611 L 714 576 Z"/><path fill="#000000" stroke="none" paint-order="stroke fill markers" d=" M 990.5 593.5 A 17 17 0 1 1 990.4999915000008 593.4830000028334 Z"/><path fill="#000000" stroke="none" paint-order="stroke fill markers" d=" M 25 611 L 60 611 L 60 646 L 25 646 L 25 611 Z"/><path fill="#000000" stroke="none" paint-order="stroke fill markers" d=" M 59 611 L 94 611 L 94 646 L 59 646 L 59 611 Z"/><path fill="#000000" stroke="none" paint-order="stroke fill markers" d=" M 93 611 L 111 611 L 111 611 A 17 17 0 0 1 128 628 L 128 629 L 128 629 A 17 17 0 0 1 111 646 L 93 646 L 93 611 Z"/><path fill="#000000" stroke="none" paint-order="stroke fill markers" d=" M 179 611 L 197 611 L 197 646 L 179 646 L 179 646 A 17 17 0 0 1 162 629 L 162 628 L 162 628 A 17 17 0 0 1 179 611 Z"/><path fill="#000000" stroke="none" paint-order="stroke fill markers" d=" M 197 611 L 215 611 L 215 611 A 17 17 0 0 1 232 628 L 232 629 L 232 629 A 17 17 0 0 1 215 646 L 197 646 L 197 611 Z"/><path fill="#000000" stroke="none" paint-order="stroke fill markers" d=" M 300 611 L 335 611 L 335 646 L 317 646 L 317 646 A 17 17 0 0 1 300 629 L 300 611 Z"/><path fill="#000000" stroke="none" paint-order="stroke fill markers" d=" M 335 611 L 370 611 L 370 646 L 335 646 L 335 611 Z"/><path fill="#000000" stroke="none" paint-order="stroke fill markers" d=" M 369 611 L 404 611 L 404 646 L 369 646 L 369 611 Z"/><path fill="#000000" stroke="none" paint-order="stroke fill markers" d=" M 473 611 L 508 611 L 508 646 L 473 646 L 473 611 Z"/><path fill="#000000" stroke="none" paint-order="stroke fill markers" d=" M 679.5 628.5 A 17 17 0 1 1 679.4999915000008 628.4830000028334 Z"/><path fill="#000000" stroke="none" paint-order="stroke fill markers" d=" M 800 611 L 818 611 L 818 646 L 800 646 L 800 646 A 17 17 0 0 1 783 629 L 783 628 L 783 628 A 17 17 0 0 1 800 611 Z"/><path fill="#000000" stroke="none" paint-order="stroke fill markers" d=" M 818 611 L 853 611 L 853 646 L 818 646 L 818 611 Z"/><path fill="#000000" stroke="none" paint-order="stroke fill markers" d=" M 852 611 L 887 611 L 887 646 L 852 646 L 852 611 Z"/><path fill="#000000" stroke="none" paint-order="stroke fill markers" d=" M 887 611 L 922 611 L 922 646 L 887 646 L 887 611 Z"/><path fill="#000000" stroke="none" paint-order="stroke fill markers" d=" M 921 611 L 939 611 L 939 611 A 17 17 0 0 1 956 628 L 956 646 L 921 646 L 921 611 Z"/><path fill="#000000" stroke="none" paint-order="stroke fill markers" d=" M 1007 611 L 1025 611 L 1025 646 L 990 646 L 990 628 L 990 628 A 17 17 0 0 1 1007 611 Z"/><path fill="#000000" stroke="none" paint-order="stroke fill markers" d=" M 265.5 662.5 A 17 17 0 1 1 265.4999915000007 662.4830000028334 Z"/><path fill="#000000" stroke="none" paint-order="stroke fill markers" d=" M 369 645 L 404 645 L 404 680 L 369 680 L 369 645 Z"/><path fill="#000000" stroke="none" paint-order="stroke fill markers" d=" M 455 645 L 473 645 L 473 680 L 455 680 L 455 680 A 17 17 0 0 1 438 663 L 438 662 L 438 662 A 17 17 0 0 1 455 645 Z"/><path fill="#000000" stroke="none" paint-order="stroke fill markers" d=" M 473 645 L 508 645 L 508 680 L 473 680 L 473 645 Z"/><path fill="#000000" stroke="none" paint-order="stroke fill markers" d=" M 507 645 L 542 645 L 542 680 L 507 680 L 507 645 Z"/><path fill="#000000" stroke="none" paint-order="stroke fill markers" d=" M 542 645 L 560 645 L 560 645 A 17 17 0 0 1 577 662 L 577 680 L 542 680 L 542 645 Z"/><path fill="#000000" stroke="none" paint-order="stroke fill markers" d=" M 748.5 662.5 A 17 17 0 1 1 748.4999915000008 662.4830000028334 Z"/><path fill="#000000" stroke="none" paint-order="stroke fill markers" d=" M 921 645 L 956 645 L 956 663 L 956 663 A 17 17 0 0 1 939 680 L 938 680 L 938 680 A 17 17 0 0 1 921 663 L 921 645 Z"/><path fill="#000000" stroke="none" paint-order="stroke fill markers" d=" M 990 645 L 1025 645 L 1025 680 L 990 680 L 990 645 Z"/><path fill="#000000" stroke="none" paint-order="stroke fill markers" d=" M 300.5 697.5 A 17 17 0 1 1 300.4999915000007 697.4830000028334 Z"/><path fill="#000000" stroke="none" paint-order="stroke fill markers" d=" M 369 680 L 404 680 L 404 715 L 369 715 L 369 680 Z"/><path fill="#000000" stroke="none" paint-order="stroke fill markers" d=" M 404 680 L 422 680 L 422 680 A 17 17 0 0 1 439 697 L 439 698 L 439 698 A 17 17 0 0 1 422 715 L 404 715 L 404 680 Z"/><path fill="#000000" stroke="none" paint-order="stroke fill markers" d=" M 507 680 L 542 680 L 542 715 L 524 715 L 524 715 A 17 17 0 0 1 507 698 L 507 680 Z"/><path fill="#000000" stroke="none" paint-order="stroke fill markers" d=" M 542 680 L 577 680 L 577 715 L 542 715 L 542 680 Z"/><path fill="#000000" stroke="none" paint-order="stroke fill markers" d=" M 576 680 L 611 680 L 611 715 L 576 715 L 576 680 Z"/><path fill="#000000" stroke="none" paint-order="stroke fill markers" d=" M 611 680 L 646 680 L 646 715 L 611 715 L 611 680 Z"/><path fill="#000000" stroke="none" paint-order="stroke fill markers" d=" M 645 680 L 680 680 L 680 715 L 645 715 L 645 680 Z"/><path fill="#000000" stroke="none" paint-order="stroke fill markers" d=" M 680 680 L 698 680 L 698 680 A 17 17 0 0 1 715 697 L 715 715 L 680 715 L 680 680 Z"/><path fill="#000000" stroke="none" paint-order="stroke fill markers" d=" M 835 680 L 853 680 L 853 715 L 818 715 L 818 697 L 818 697 A 17 17 0 0 1 835 680 Z"/><path fill="#000000" stroke="none" paint-order="stroke fill markers" d=" M 852 680 L 887 680 L 887 715 L 852 715 L 852 680 Z"/><path fill="#000000" stroke="none" paint-order="stroke fill markers" d=" M 887 680 L 905 680 L 905 680 A 17 17 0 0 1 922 697 L 922 715 L 887 715 L 887 680 Z"/><path fill="#000000" stroke="none" paint-order="stroke fill markers" d=" M 973 680 L 991 680 L 991 715 L 956 715 L 956 697 L 956 697 A 17 17 0 0 1 973 680 Z"/><path fill="#000000" stroke="none" paint-order="stroke fill markers" d=" M 990 680 L 1025 680 L 1025 715 L 990 715 L 990 680 Z"/><path fill="#000000" stroke="none" paint-order="stroke fill markers" d=" M 25 714 L 60 714 L 60 749 L 25 749 L 25 714 Z"/><path fill="#000000" stroke="none" paint-order="stroke fill markers" d=" M 59 714 L 94 714 L 94 749 L 59 749 L 59 714 Z"/><path fill="#000000" stroke="none" paint-order="stroke fill markers" d=" M 93 714 L 128 714 L 128 749 L 93 749 L 93 714 Z"/><path fill="#000000" stroke="none" paint-order="stroke fill markers" d=" M 128 714 L 146 714 L 146 714 A 17 17 0 0 1 163 731 L 163 732 L 163 732 A 17 17 0 0 1 146 749 L 128 749 L 128 714 Z"/><path fill="#000000" stroke="none" paint-order="stroke fill markers" d=" M 214 714 L 232 714 L 232 749 L 214 749 L 214 749 A 17 17 0 0 1 197 732 L 197 731 L 197 731 A 17 17 0 0 1 214 714 Z"/><path fill="#000000" stroke="none" paint-order="stroke fill markers" d=" M 231 714 L 249 714 L 249 714 A 17 17 0 0 1 266 731 L 266 732 L 266 732 A 17 17 0 0 1 249 749 L 231 749 L 231 714 Z"/><path fill="#000000" stroke="none" paint-order="stroke fill markers" d=" M 369 714 L 404 714 L 404 749 L 369 749 L 369 714 Z"/><path fill="#000000" stroke="none" paint-order="stroke fill markers" d=" M 472.5 731.5 A 17 17 0 1 1 472.4999915000007 731.4830000028334 Z"/><path fill="#000000" stroke="none" paint-order="stroke fill markers" d=" M 576 714 L 611 714 L 611 749 L 576 749 L 576 714 Z"/><path fill="#000000" stroke="none" paint-order="stroke fill markers" d=" M 611 714 L 646 714 L 646 732 L 646 732 A 17 17 0 0 1 629 749 L 611 749 L 611 714 Z"/><path fill="#000000" stroke="none" paint-order="stroke fill markers" d=" M 680 714 L 715 714 L 715 749 L 697 749 L 697 749 A 17 17 0 0 1 680 732 L 680 714 Z"/><path fill="#000000" stroke="none" paint-order="stroke fill markers" d=" M 714 714 L 749 714 L 749 749 L 714 749 L 714 714 Z"/><path fill="#000000" stroke="none" paint-order="stroke fill markers" d=" M 749 714 L 784 714 L 784 749 L 749 749 L 749 714 Z"/><path fill="#000000" stroke="none" paint-order="stroke fill markers" d=" M 783 714 L 818 714 L 818 749 L 783 749 L 783 714 Z"/><path fill="#000000" stroke="none" paint-order="stroke fill markers" d=" M 818 714 L 853 714 L 853 749 L 818 749 L 818 714 Z"/><path fill="#000000" stroke="none" paint-order="stroke fill markers" d=" M 852 714 L 887 714 L 887 749 L 852 749 L 852 714 Z"/><path fill="#000000" stroke="none" paint-order="stroke fill markers" d=" M 887 714 L 922 714 L 922 732 L 922 732 A 17 17 0 0 1 905 749 L 887 749 L 887 714 Z"/><path fill="#000000" stroke="none" paint-order="stroke fill markers" d=" M 956 714 L 991 714 L 991 749 L 973 749 L 973 749 A 17 17 0 0 1 956 732 L 956 714 Z"/><path fill="#000000" stroke="none" paint-order="stroke fill markers" d=" M 990 714 L 1025 714 L 1025 749 L 990 749 L 990 714 Z"/><path fill="#000000" stroke="none" paint-order="stroke fill markers" d=" M 334.5 766.5 A 17 17 0 1 1 334.4999915000007 766.4830000028334 Z"/><path fill="#000000" stroke="none" paint-order="stroke fill markers" d=" M 369 749 L 404 749 L 404 767 L 404 767 A 17 17 0 0 1 387 784 L 386 784 L 386 784 A 17 17 0 0 1 369 767 L 369 749 Z"/><path fill="#000000" stroke="none" paint-order="stroke fill markers" d=" M 490 749 L 508 749 L 508 784 L 473 784 L 473 766 L 473 766 A 17 17 0 0 1 490 749 Z"/><path fill="#000000" stroke="none" paint-order="stroke fill markers" d=" M 507 749 L 542 749 L 542 784 L 507 784 L 507 749 Z"/><path fill="#000000" stroke="none" paint-order="stroke fill markers" d=" M 542 749 L 577 749 L 577 784 L 542 784 L 542 749 Z"/><path fill="#000000" stroke="none" paint-order="stroke fill markers" d=" M 576 749 L 611 749 L 611 767 L 611 767 A 17 17 0 0 1 594 784 L 576 784 L 576 749 Z"/><path fill="#000000" stroke="none" paint-order="stroke fill markers" d=" M 679.5 766.5 A 17 17 0 1 1 679.4999915000008 766.4830000028334 Z"/><path fill="#000000" stroke="none" paint-order="stroke fill markers" d=" M 714 749 L 749 749 L 749 784 L 714 784 L 714 749 Z"/><path fill="#000000" stroke="none" paint-order="stroke fill markers" d=" M 852 749 L 887 749 L 887 784 L 852 784 L 852 749 Z"/><path fill="#000000" stroke="none" paint-order="stroke fill markers" d=" M 955.5 766.5 A 17 17 0 1 1 955.4999915000008 766.4830000028334 Z"/><path fill="#000000" stroke="none" paint-order="stroke fill markers" d=" M 990 749 L 1025 749 L 1025 784 L 990 784 L 990 749 Z"/><path fill="#000000" stroke="none" paint-order="stroke fill markers" d=" M 352 783 L 353 783 L 353 783 A 17 17 0 0 1 370 800 L 370 818 L 335 818 L 335 800 L 335 800 A 17 17 0 0 1 352 783 Z"/><path fill="#000000" stroke="none" paint-order="stroke fill markers" d=" M 473 783 L 508 783 L 508 818 L 473 818 L 473 783 Z"/><path fill="#000000" stroke="none" paint-order="stroke fill markers" d=" M 542 783 L 577 783 L 577 801 L 577 801 A 17 17 0 0 1 560 818 L 559 818 L 559 818 A 17 17 0 0 1 542 801 L 542 783 Z"/><path fill="#000000" stroke="none" paint-order="stroke fill markers" d=" M 628 783 L 629 783 L 629 783 A 17 17 0 0 1 646 800 L 646 818 L 611 818 L 611 800 L 611 800 A 17 17 0 0 1 628 783 Z"/><path fill="#000000" stroke="none" paint-order="stroke fill markers" d=" M 697 783 L 715 783 L 715 818 L 680 818 L 680 800 L 680 800 A 17 17 0 0 1 697 783 Z"/><path fill="#000000" stroke="none" paint-order="stroke fill markers" d=" M 714 783 L 749 783 L 749 818 L 714 818 L 714 783 Z"/><path fill="#000000" stroke="none" paint-order="stroke fill markers" d=" M 817.5 800.5 A 17 17 0 1 1 817.4999915000008 800.4830000028334 Z"/><path fill="#000000" stroke="none" paint-order="stroke fill markers" d=" M 852 783 L 887 783 L 887 818 L 852 818 L 852 783 Z"/><path fill="#000000" stroke="none" paint-order="stroke fill markers" d=" M 990 783 L 1025 783 L 1025 818 L 1007 818 L 1007 818 A 17 17 0 0 1 990 801 L 990 783 Z"/><path fill="#000000" stroke="none" paint-order="stroke fill markers" d=" M 335 818 L 370 818 L 370 853 L 335 853 L 335 818 Z"/><path fill="#000000" stroke="none" paint-order="stroke fill markers" d=" M 369 818 L 387 818 L 387 818 A 17 17 0 0 1 404 835 L 404 853 L 369 853 L 369 818 Z"/><path fill="#000000" stroke="none" paint-order="stroke fill markers" d=" M 455 818 L 473 818 L 473 853 L 455 853 L 455 853 A 17 17 0 0 1 438 836 L 438 835 L 438 835 A 17 17 0 0 1 455 818 Z"/><path fill="#000000" stroke="none" paint-order="stroke fill markers" d=" M 473 818 L 508 818 L 508 836 L 508 836 A 17 17 0 0 1 491 853 L 473 853 L 473 818 Z"/><path fill="#000000" stroke="none" paint-order="stroke fill markers" d=" M 611 818 L 646 818 L 646 853 L 628 853 L 628 853 A 17 17 0 0 1 611 836 L 611 818 Z"/><path fill="#000000" stroke="none" paint-order="stroke fill markers" d=" M 645 818 L 680 818 L 680 853 L 645 853 L 645 818 Z"/><path fill="#000000" stroke="none" paint-order="stroke fill markers" d=" M 680 818 L 715 818 L 715 853 L 680 853 L 680 818 Z"/><path fill="#000000" stroke="none" paint-order="stroke fill markers" d=" M 714 818 L 749 818 L 749 853 L 714 853 L 714 818 Z"/><path fill="#000000" stroke="none" paint-order="stroke fill markers" d=" M 852 818 L 887 818 L 887 853 L 852 853 L 852 818 Z"/><path fill="#000000" stroke="none" paint-order="stroke fill markers" d=" M 887 818 L 905 818 L 905 818 A 17 17 0 0 1 922 835 L 922 836 L 922 836 A 17 17 0 0 1 905 853 L 887 853 L 887 818 Z"/><path fill="#000000" stroke="none" paint-order="stroke fill markers" d=" M 990.5 835.5 A 17 17 0 1 1 990.4999915000008 835.4830000028334 Z"/><path fill="#000000" stroke="none" paint-order="stroke fill markers" d=" M 317 852 L 335 852 L 335 887 L 317 887 L 317 887 A 17 17 0 0 1 300 870 L 300 869 L 300 869 A 17 17 0 0 1 317 852 Z"/><path fill="#000000" stroke="none" paint-order="stroke fill markers" d=" M 335 852 L 370 852 L 370 887 L 335 887 L 335 852 Z"/><path fill="#000000" stroke="none" paint-order="stroke fill markers" d=" M 369 852 L 404 852 L 404 887 L 369 887 L 369 852 Z"/><path fill="#000000" stroke="none" paint-order="stroke fill markers" d=" M 404 852 L 422 852 L 422 852 A 17 17 0 0 1 439 869 L 439 870 L 439 870 A 17 17 0 0 1 422 887 L 404 887 L 404 852 Z"/><path fill="#000000" stroke="none" paint-order="stroke fill markers" d=" M 524 852 L 542 852 L 542 887 L 507 887 L 507 869 L 507 869 A 17 17 0 0 1 524 852 Z"/><path fill="#000000" stroke="none" paint-order="stroke fill markers" d=" M 542 852 L 560 852 L 560 852 A 17 17 0 0 1 577 869 L 577 870 L 577 870 A 17 17 0 0 1 560 887 L 542 887 L 542 852 Z"/><path fill="#000000" stroke="none" paint-order="stroke fill markers" d=" M 645 852 L 680 852 L 680 887 L 662 887 L 662 887 A 17 17 0 0 1 645 870 L 645 852 Z"/><path fill="#000000" stroke="none" paint-order="stroke fill markers" d=" M 680 852 L 715 852 L 715 887 L 680 887 L 680 852 Z"/><path fill="#000000" stroke="none" paint-order="stroke fill markers" d=" M 714 852 L 749 852 L 749 887 L 714 887 L 714 852 Z"/><path fill="#000000" stroke="none" paint-order="stroke fill markers" d=" M 749 852 L 784 852 L 784 887 L 749 887 L 749 852 Z"/><path fill="#000000" stroke="none" paint-order="stroke fill markers" d=" M 783 852 L 818 852 L 818 887 L 783 887 L 783 852 Z"/><path fill="#000000" stroke="none" paint-order="stroke fill markers" d=" M 818 852 L 853 852 L 853 887 L 818 887 L 818 852 Z"/><path fill="#000000" stroke="none" paint-order="stroke fill markers" d=" M 852 852 L 887 852 L 887 870 L 887 870 A 17 17 0 0 1 870 887 L 852 887 L 852 852 Z"/><path fill="#000000" stroke="none" paint-order="stroke fill markers" d=" M 507 887 L 542 887 L 542 905 L 542 905 A 17 17 0 0 1 525 922 L 524 922 L 524 922 A 17 17 0 0 1 507 905 L 507 887 Z"/><path fill="#000000" stroke="none" paint-order="stroke fill markers" d=" M 593 887 L 594 887 L 594 887 A 17 17 0 0 1 611 904 L 611 922 L 576 922 L 576 904 L 576 904 A 17 17 0 0 1 593 887 Z"/><path fill="#000000" stroke="none" paint-order="stroke fill markers" d=" M 818 887 L 853 887 L 853 905 L 853 905 A 17 17 0 0 1 836 922 L 835 922 L 835 922 A 17 17 0 0 1 818 905 L 818 887 Z"/><path fill="#000000" stroke="none" paint-order="stroke fill markers" d=" M 973 887 L 974 887 L 974 887 A 17 17 0 0 1 991 904 L 991 922 L 956 922 L 956 904 L 956 904 A 17 17 0 0 1 973 887 Z"/><path fill="#000000" stroke="none" paint-order="stroke fill markers" d=" M 386 921 L 404 921 L 404 956 L 369 956 L 369 938 L 369 938 A 17 17 0 0 1 386 921 Z"/><path fill="#000000" stroke="none" paint-order="stroke fill markers" d=" M 404 921 L 439 921 L 439 956 L 404 956 L 404 921 Z"/><path fill="#000000" stroke="none" paint-order="stroke fill markers" d=" M 438 921 L 456 921 L 456 921 A 17 17 0 0 1 473 938 L 473 956 L 438 956 L 438 921 Z"/><path fill="#000000" stroke="none" paint-order="stroke fill markers" d=" M 576 921 L 611 921 L 611 939 L 611 939 A 17 17 0 0 1 594 956 L 593 956 L 593 956 A 17 17 0 0 1 576 939 L 576 921 Z"/><path fill="#000000" stroke="none" paint-order="stroke fill markers" d=" M 662 921 L 680 921 L 680 956 L 662 956 L 662 956 A 17 17 0 0 1 645 939 L 645 938 L 645 938 A 17 17 0 0 1 662 921 Z"/><path fill="#000000" stroke="none" paint-order="stroke fill markers" d=" M 680 921 L 715 921 L 715 956 L 680 956 L 680 921 Z"/><path fill="#000000" stroke="none" paint-order="stroke fill markers" d=" M 714 921 L 749 921 L 749 956 L 714 956 L 714 921 Z"/><path fill="#000000" stroke="none" paint-order="stroke fill markers" d=" M 749 921 L 767 921 L 767 921 A 17 17 0 0 1 784 938 L 784 939 L 784 939 A 17 17 0 0 1 767 956 L 749 956 L 749 921 Z"/><path fill="#000000" stroke="none" paint-order="stroke fill markers" d=" M 956 921 L 991 921 L 991 956 L 956 956 L 956 921 Z"/><path fill="#000000" stroke="none" paint-order="stroke fill markers" d=" M 990 921 L 1025 921 L 1025 956 L 990 956 L 990 921 Z"/><path fill="#000000" stroke="none" paint-order="stroke fill markers" d=" M 317 956 L 335 956 L 335 991 L 317 991 L 317 991 A 17 17 0 0 1 300 974 L 300 973 L 300 973 A 17 17 0 0 1 317 956 Z"/><path fill="#000000" stroke="none" paint-order="stroke fill markers" d=" M 335 956 L 370 956 L 370 991 L 335 991 L 335 956 Z"/><path fill="#000000" stroke="none" paint-order="stroke fill markers" d=" M 369 956 L 404 956 L 404 991 L 369 991 L 369 956 Z"/><path fill="#000000" stroke="none" paint-order="stroke fill markers" d=" M 438 956 L 473 956 L 473 991 L 438 991 L 438 956 Z"/><path fill="#000000" stroke="none" paint-order="stroke fill markers" d=" M 473 956 L 491 956 L 491 956 A 17 17 0 0 1 508 973 L 508 991 L 473 991 L 473 956 Z"/><path fill="#000000" stroke="none" paint-order="stroke fill markers" d=" M 628 956 L 629 956 L 629 956 A 17 17 0 0 1 646 973 L 646 991 L 611 991 L 611 973 L 611 973 A 17 17 0 0 1 628 956 Z"/><path fill="#000000" stroke="none" paint-order="stroke fill markers" d=" M 714 956 L 749 956 L 749 991 L 714 991 L 714 956 Z"/><path fill="#000000" stroke="none" paint-order="stroke fill markers" d=" M 852.5 973.5 A 17 17 0 1 1 852.4999915000008 973.4830000028334 Z"/><path fill="#000000" stroke="none" paint-order="stroke fill markers" d=" M 904 956 L 905 956 L 905 956 A 17 17 0 0 1 922 973 L 922 991 L 887 991 L 887 973 L 887 973 A 17 17 0 0 1 904 956 Z"/><path fill="#000000" stroke="none" paint-order="stroke fill markers" d=" M 956 956 L 991 956 L 991 991 L 956 991 L 956 956 Z"/><path fill="#000000" stroke="none" paint-order="stroke fill markers" d=" M 990 956 L 1025 956 L 1025 991 L 990 991 L 990 956 Z"/><path fill="#000000" stroke="none" paint-order="stroke fill markers" d=" M 335 990 L 370 990 L 370 1025 L 335 1025 L 335 990 Z"/><path fill="#000000" stroke="none" paint-order="stroke fill markers" d=" M 369 990 L 404 990 L 404 1025 L 369 1025 L 369 990 Z"/><path fill="#000000" stroke="none" paint-order="stroke fill markers" d=" M 404 990 L 439 990 L 439 1025 L 404 1025 L 404 990 Z"/><path fill="#000000" stroke="none" paint-order="stroke fill markers" d=" M 438 990 L 473 990 L 473 1025 L 438 1025 L 438 990 Z"/><path fill="#000000" stroke="none" paint-order="stroke fill markers" d=" M 473 990 L 508 990 L 508 1025 L 473 1025 L 473 990 Z"/><path fill="#000000" stroke="none" paint-order="stroke fill markers" d=" M 559 990 L 560 990 L 560 990 A 17 17 0 0 1 577 1007 L 577 1025 L 542 1025 L 542 1007 L 542 1007 A 17 17 0 0 1 559 990 Z"/><path fill="#000000" stroke="none" paint-order="stroke fill markers" d=" M 611 990 L 646 990 L 646 1025 L 611 1025 L 611 990 Z"/><path fill="#000000" stroke="none" paint-order="stroke fill markers" d=" M 714 990 L 749 990 L 749 1025 L 714 1025 L 714 990 Z"/><path fill="#000000" stroke="none" paint-order="stroke fill markers" d=" M 800 990 L 801 990 L 801 990 A 17 17 0 0 1 818 1007 L 818 1025 L 783 1025 L 783 1007 L 783 1007 A 17 17 0 0 1 800 990 Z"/><path fill="#000000" stroke="none" paint-order="stroke fill markers" d=" M 869 990 L 887 990 L 887 1025 L 852 1025 L 852 1007 L 852 1007 A 17 17 0 0 1 869 990 Z"/><path fill="#000000" stroke="none" paint-order="stroke fill markers" d=" M 887 990 L 922 990 L 922 1025 L 887 1025 L 887 990 Z"/><path fill="#000000" stroke="none" paint-order="stroke fill markers" d=" M 956 990 L 991 990 L 991 1025 L 956 1025 L 956 990 Z"/><path fill="none" stroke="#000000" paint-order="fill stroke markers" d=" M 42.5 42.5 L 248.87931034482762 42.5 L 248.87931034482762 248.87931034482762 L 42.5 248.87931034482762 L 42.5 42.5 Z" stroke-miterlimit="10" stroke-width="35" stroke-dasharray=""/><path fill="#000000" stroke="#000000" paint-order="fill stroke markers" d=" M 111.46551724137932 111.46551724137932 L 179.9137931034483 111.46551724137932 L 179.9137931034483 179.9137931034483 L 111.46551724137932 179.9137931034483 L 111.46551724137932 111.46551724137932 Z" stroke-miterlimit="10" stroke-width="35" stroke-dasharray=""/><path fill="none" stroke="#000000" paint-order="fill stroke markers" d=" M 801.1206896551724 42.5 L 1007.5 42.5 L 1007.5 248.87931034482762 L 801.1206896551724 248.87931034482762 L 801.1206896551724 42.5 Z" stroke-miterlimit="10" stroke-width="35" stroke-dasharray=""/><path fill="#000000" stroke="#000000" paint-order="fill stroke markers" d=" M 870.0862068965517 111.46551724137932 L 938.5344827586207 111.46551724137932 L 938.5344827586207 179.9137931034483 L 870.0862068965517 179.9137931034483 L 870.0862068965517 111.46551724137932 Z" stroke-miterlimit="10" stroke-width="35" stroke-dasharray=""/><path fill="none" stroke="#000000" paint-order="fill stroke markers" d=" M 42.5 801.1206896551724 L 248.87931034482762 801.1206896551724 L 248.87931034482762 1007.5 L 42.5 1007.5 L 42.5 801.1206896551724 Z" stroke-miterlimit="10" stroke-width="35" stroke-dasharray=""/><path fill="#000000" stroke="#000000" paint-order="fill stroke markers" d=" M 111.46551724137932 870.0862068965517 L 179.9137931034483 870.0862068965517 L 179.9137931034483 938.5344827586207 L 111.46551724137932 938.5344827586207 L 111.46551724137932 870.0862068965517 Z" stroke-miterlimit="10" stroke-width="35" stroke-dasharray=""/></g></svg>