<svg xmlns="http://www.w3.org/2000/svg" xmlns:xlink="http://www.w3.org/1999/xlink" width="2000" zoomAndPan="magnify" viewBox="0 0 1500 1499.999933" height="2000" preserveAspectRatio="xMidYMid meet" version="1.0"><defs><g/><clipPath id="6a0781df96"><rect x="0" width="657" y="0" height="654"/></clipPath><clipPath id="2c1a037d5d"><rect x="0" width="656" y="0" height="1123"/></clipPath></defs><g transform="matrix(1, 0, 0, 1, 150, 470)"><g clip-path="url(#6a0781df96)"><g fill="#ffffff" fill-opacity="1"><g transform="translate(0.00002043, 653.766835)"><g><path d="M 81.59375 -81.59375 L 81.59375 -163.171875 L 163.171875 -163.171875 L 163.171875 -244.765625 L 244.765625 -244.765625 L 244.765625 -326.34375 L 326.34375 -326.34375 L 326.34375 -407.9375 L 244.765625 -407.9375 L 244.765625 -489.53125 L 163.171875 -489.53125 L 163.171875 -571.109375 L 81.59375 -571.109375 L 81.59375 -652.703125 L 244.765625 -652.703125 L 244.765625 -571.109375 L 326.34375 -571.109375 L 326.34375 -489.53125 L 407.9375 -489.53125 L 407.9375 -407.9375 L 489.53125 -407.9375 L 489.53125 -326.34375 L 407.9375 -326.34375 L 407.9375 -244.765625 L 326.34375 -244.765625 L 326.34375 -163.171875 L 244.765625 -163.171875 L 244.765625 -81.59375 Z M 81.59375 -81.59375 "/></g></g></g></g></g><g transform="matrix(1, 0, 0, 1, 750, 149)"><g clip-path="url(#2c1a037d5d)"><g fill="#ffffff" fill-opacity="1"><g transform="translate(-0.00003125, 888.256377)"><g><path d="M 0 0 L 467.796875 0 L 467.796875 93.65625 L 0 93.65625 Z M 0 0 "/></g></g></g></g></g></svg>