<svg xmlns="http://www.w3.org/2000/svg" viewBox="0 0 65 54" shape-rendering="crispEdges">
  <rect width="65" height="54" fill="#000"/>
  <!-- pair 1 -->
  <g>
    <path d="M3 0h1v1h-1z M18 0h1v1h-1z M3 1h1v1h-1z M18 1h1v1h-1z M0 3h1v1h-1z M22 3h2v1h-2z M16 4h1v1h-1z M16 5h1v1h-1z M24 5h2v1h-2z M16 6h1v1h-1z M16 7h1v1h-1z M26 7h2v1h-2z M16 8h1v1h-1z M27 8h1v1h-1z M0 9h1v1h-1z M16 9h1v1h-1z M16 10h1v1h-1z M3 11h1v1h-1z M16 11h1v1h-1z M27 11h1v1h-1z M3 12h1v1h-1z M16 12h1v1h-1z M27 12h1v1h-1z M5 13h1v1h-1z M5 14h1v1h-1z M20 15h1v1h-1z" fill="#2d4a2e"/>
    <path d="M4 0h14v1h-14z M4 1h14v1h-14z M2 2h3v1h-3z M19 2h3v1h-3z M2 3h3v1h-3z M19 3h3v1h-3z M0 4h4v1h-4z M22 4h2v1h-2z M0 5h2v1h-2z M0 6h2v1h-2z M24 6h2v1h-2z M0 7h2v1h-2z M0 8h2v1h-2z M26 8h1v1h-1z M2 9h2v1h-2z M26 9h2v1h-2z M2 10h2v1h-2z M26 10h2v1h-2z M4 11h1v1h-1z M24 11h3v1h-3z M4 12h1v1h-1z M24 12h3v1h-3z M6 13h3v1h-3z M20 13h4v1h-4z M6 14h3v1h-3z M21 14h3v1h-3z M9 15h11v1h-11z" fill="#4d784e"/>
    <path d="M5 2h14v1h-14z M5 3h3v1h-3z M14 3h5v1h-5z M4 4h3v1h-3z M19 4h3v1h-3z M2 5h4v1h-4z M13 5h2v1h-2z M20 5h4v1h-4z Shad2 6h3v1h-3z M21 6h3v1h-3z M2 7h3v1h-3z M24 7h2v1h-2z M2 8h3v1h-3z M24 8h2v1h-2z M4 9h3v1h-3z M23 9h3v1h-3z M4 10h3v1h-3z M22 10h4v1h-4z M5 11h4v1h-4z M21 11h3v1h-3z M5 12h4v1h-4z M20 12h4v1h-4z M9 13h11v1h-11z M9 14h12v1h-12z" fill="#6ba36d"/>
    <path d="M8 3h6v1h-6z M7 4h8v1h-8z M17 4h2v1h-2z M6 5h7v1h-7z M17 5h3v1h-3z M5 6h8v1h-8z M17 6h4v1h-4z M5 7h8v1h-8z M17 7h7v1h-7z M5 8h8v1h-8z M17 8h7v1h-7z M7 9h6v1h-6z M17 9h6v1h-6z M7 10h6v1h-6z M17 10h5v1h-5z M9 11h6v1h-6z M17 11h4v1h-4z M9 12h6v1h-6z M17 12h3v1h-3z" fill="#89ce8d"/>
    <g transform="translate(37,0)">
      <path d="M10 0h1v1h-1z M10 1h1v1h-1z M6 2h1v1h-1z M5 3h2v1h-2z M3 5h2v1h-2z M1 7h2v1h-2z M1 8h1v1h-1z M27 9h1v1h-1z M1 11h1v1h-1z M1 12h1v1h-1z M23 13h1v1h-1z M23 14h1v1h-1z M8 15h1v1h-1z" fill="#2d4a2e"/>
      <path d="M11 0h14v1h-14z M11 1h14v1h-14z M7 2h3v1h-3z M23 2h4v1h-4z M7 3h3v1h-3z M23 3h4v1h-4z M5 4h2v1h-2z M25 4h3v1h-3z M27 5h1v1h-1z M3 6h2v1h-2z M27 6h1v1h-1z M27 7h1v1h-1z M2 8h1v1h-1z M27 8h1v1h-1z M0 9h3v1h-3z M25 9h2v1h-2z Shad0 10h3v1h-3z M25 10h2v1h-2z M2 11h3v1h-3z M23 11h2v1h-2z M2 12h3v1h-3z M23 12h2v1h-2z M5 13h3v1h-3z M20 13h3v1h-3z M5 14h4v1h-4z M20 14h3v1h-3z M9 15h11v1h-11z" fill="#4d784e"/>
      <path d="M10 2h13v1h-13z M10 3h5v1h-5z M16 3h3v1h-3z M20 3h3v1h-3z M7 4h3v1h-3z M22 4h3v1h-3z M5 5h4v1h-4z M14 5h2v1h-2z M23 5h4v1h-4z M5 6h3v1h-3z M24 6h3v1h-3z M3 7h2v1h-2z M24 7h3v1h-3z M3 8h2v1h-2z M24 8h3v1h-3z M3 9h2v1h-2z M22 9h3v1h-3z M3 10h4v1h-4z M22 10h3v1h-3z M5 11h3v1h-3z M20 11h3v1h-3z M5 12h4v1h-4z M20 12h3v1h-3z M8 13h12v1h-12z M9 14h11v1h-11z" fill="#6ba36d"/>
      <path d="M15 3h1v1h-1z M19 3h1v1h-1z M10 4h2v1h-2z M14 4h8v1h-8z M9 5h3v1h-3z M16 5h7v1h-7z M8 6h4v1h-4z M16 6h8v1h-8z M5 7h7v1h-7z M16 7h8v1h-8z M5 8h7v1h-7z M16 8h8v1h-8z M5 9h7v1h-7z M16 9h6v1h-6z M7 10h5v1h-5z M16 10h6v1h-6z M8 11h4v1h-4z M14 11h6v1h-6z M9 12h3v1h-3z M14 12h6v1h-6z" fill="#89ce8d"/>
    </g>
  </g>

  <!-- pair 2 (y offset 18) -->
  <g transform="translate(0,18)">
    <path d="M3 0h1v1h-1z M18 0h1v1h-1z M3 1h1v1h-1z M18 1h1v1h-1z M0 3h1v1h-1z M22 3h2v1h-2z M16 4h1v1h-1z M16 5h1v1h-1z M24 5h2v1h-2z M16 6h1v1h-1z M16 7h1v1h-1z M26 7h2v1h-2z M16 8h1v1h-1z M27 8h1v1h-1z M0 9h1v1h-1z M16 9h1v1h-1z M16 10h1v1h-1z M3 11h1v1h-1z M16 11h1v1h-1z M27 11h1v1h-1z M3 12h1v1h-1z M16 12h1v1h-1z M27 12h1v1h-1z M5 13h1v1h-1z M5 14h1v1h-1z M20 15h1v1h-1z" fill="#2d4a2e"/>
    <path d="M4 0h14v1h-14z M4 1h14v1h-14z M2 2h3v1h-3z M19 2h3v1h-3z M2 3h3v1h-3z M19 3h3v1h-3z M0 4h4v1h-4z M22 4h2v1h-2z M0 5h2v1h-2z M0 6h2v1h-2z M24 6h2v1h-2z M0 7h2v1h-2z M0 8h2v1h-2z M26 8h1v1h-1z M2 9h2v1h-2z M26 9h2v1h-2z M2 10h2v1h-2z M26 10h2v1h-2z M4 11h1v1h-1z M24 11h3v1h-3z M4 12h1v1h-1z M24 12h3v1h-3z M6 13h3v1h-3z M20 13h4v1h-4z M6 14h3v1h-3z M21 14h3v1h-3z M9 15h11v1h-11z" fill="#4d784e"/>
    <path d="M5 2h14v1h-14z M5 3h3v1h-3z M14 3h5v1h-5z M4 4h3v1h-3z M19 4h3v1h-3z M2 5h4v1h-4z M13 5h2v1h-2z M20 5h4v1h-4z M2 6h3v1h-3z M21 6h3v1h-3z M2 7h3v1h-3z M24 7h2v1h-2z M2 8h3v1h-3z M24 8h2v1h-2z M4 9h3v1h-3z M23 9h3v1h-3z M4 10h3v1h-3z M22 10h4v1h-4z M5 11h4v1h-4z M21 11h3v1h-3z M5 12h4v1h-4z M20 12h4v1h-4z M9 13h11v1h-11z M9 14h12v1h-12z" fill="#6ba36d"/>
    <path d="M8 3h6v1h-6z M7 4h8v1h-8z M17 4h2v1h-2z M6 5h7v1h-7z M17 5h3v1h-3z M5 6h8v1h-8z M17 6h4v1h-4z M5 7h8v1h-8z M17 7h7v1h-7z M5 8h8v1h-8z M17 8h7v1h-7z M7 9h6v1h-6z M17 9h6v1h-6z M7 10h6v1h-6z M17 10h5v1h-5z M9 11h6v1h-6z M17 11h4v1h-4z M9 12h6v1h-6z M17 12h3v1h-3z" fill="#89ce8d"/>
    <g transform="translate(37,0)">
      <path d="M10 0h1v1h-1z M10 1h1v1h-1z M6 2h1v1h-1z M5 3h2v1h-2z M3 5h2v1h-2z M1 7h2v1h-2z M1 8h1v1h-1z M27 9h1v1h-1z M1 11h1v1h-1z M1 12h1v1h-1z M23 13h1v1h-1z M23 14h1v1h-1z M8 15h1v1h-1z" fill="#2d4a2e"/>
      <path d="M11 0h14v1h-14z M11 1h14v1h-14z M7 2h3v1h-3z M23 2h4v1h-4z M7 3h3v1h-3z M23 3h4v1h-4z M5 4h2v1h-2z M25 4h3v1h-3z M27 5h1v1h-1z M3 6h2v1h-2z M27 6h1v1h-1z M27 7h1v1h-1z M2 8h1v1h-1z M27 8h1v1h-1z M0 9h3v1h-3z M25 9h2v1h-2z M0 10h3v1h-3z M25 10h2v1h-2z M2 11h3v1h-3z M23 11h2v1h-2z M2 12h3v1h-3z M23 12h2v1h-2z M5 13h3v1h-3z M20 13h3v1h-3z M5 14h4v1h-4z M20 14h3v1h-3z M9 15h11v1h-11z" fill="#4d784e"/>
      <path d="M10 2h13v1h-13z M10 3h5v1h-5z M16 3h3v1h-3z M20 3h3v1h-3z M7 4h3v1h-3z M22 4h3v1h-3z M5 5h4v1h-4z M14 5h2v1h-2z M23 5h4v1h-4z Shad5 6h3v1h-3z M24 6h3v1h-3z M3 7h2v1h-2z M24 7h3v1h-3z M3 8h2v1h-2z M24 8h3v1h-3z M3 9h2v1h-2z M22 9h3v1h-3z M3 10h4v1h-4z M22 10h3v1h-3z M5 11h3v1h-3z M20 11h3v1h-3z M5 12h4v1h-4z M20 12h3v1h-3z M8 13h12v1h-12z M9 14h11v1h-11z" fill="#6ba36d"/>
      <path d="M15 3h1v1h-1z M19 3h1v1h-1z M10 4h2v1h-2z M14 4h8v1h-8z M9 5h3v1h-3z M16 5h7v1h-7z M8 6h4v1h-4z M16 6h8v1h-8z M5 7h7v1h-7z M16 7h8v1h-8z M5 8h7v1h-7z M16 8h8v1h-8z M5 9h7v1h-7z M16 9h6v1h-6z M7 10h5v1h-5z M16 10h6v1h-6z M8 11h4v1h-4z M14 11h6v1h-6z M9 12h3v1h-3z M14 12h6v1h-6z" fill="#89ce8d"/>
    </g>
  </g>

  <!-- pair 3 (y offset 36) -->
  <g transform="translate(0,36)">
    <path d="M3 0h1v1h-1z M18 0h1v1h-1z M3 1h1v1h-1z M18 1h1v1h-1z M0 3h1v1h-1z M22 3h2v1h-2z M16 4h1v1h-1z M16 5h1v1h-1z M24 5h2v1h-2z M16 6h1v1h-1z M16 7h1v1h-1z M26 7h2v1h-2z M16 8h1v1h-1z M27 8h1v1h-1z M0 9h1v1h-1z M16 9h1v1h-1z M16 10h1v1h-1z M3 11h1v1h-1z M16 11h1v1h-1z M27 11h1v1h-1z M3 12h1v1h-1z M16 12h1v1h-1z M27 12h1v1h-1z M5 13h1v1h-1z M5 14h1v1h-1z M20 15h1v1h-1z" fill="#2d4a2e"/>
    <path d="M4 0h14v1h-14z M4 1h14v1h-14z M2 2h3v1h-3z M19 2h3v1h-3z M2 3h3v1h-3z M19 3h3v1h-3z M0 4h4v1h-4z M22 4h2v1h-2z M0 5h2v1h-2z M0 6h2v1h-2z M24 6h2v1h-2z M0 7h2v1h-2z M0 8h2v1h-2z M26 8h1v1h-1z M2 9h2v1h-2z M26 9h2v1h-2z M2 10h2v1h-2z M26 10h2v1h-2z M4 11h1v1h-1z M24 11h3v1h-3z M4 12h1v1h-1z M24 12h3v1h-3z M6 13h3v1h-3z M20 13h4v1h-4z M6 14h3v1h-3z M21 14h3v1h-3z M9 15h11v1h-11z" fill="#4d784e"/>
    <path d="M5 2h14v1h-14z M5 3h3v1h-3z M14 3h5v1h-5z M4 4h3v1h-3z M19 4h3v1h-3z M2 5h4v1h-4z M13 5h2v1h-2z M20 5h4v1h-4z M2 6h3v1h-3z M21 6h3v1h-3z M2 7h3v1h-3z M24 7h2v1h-2z M2 8h3v1h-3z M24 8h2v1h-2z M4 9h3v1h-3z M23 9h3v1h-3z M4 10h3v1h-3z M22 10h4v1h-4z M5 11h4v1h-4z M21 11h3v1h-3z M5 12h4v1h-4z M20 12h4v1h-4z M9 13h11v1h-11z M9 14h12v1h-12z" fill="#6ba36d"/>
    <path d="M8 3h6v1h-6z M7 4h8v1h-8z M17 4h2v1h-2z M6 5h7v1h-7z M17 5h3v1h-3z M5 6h8v1h-8z M17 6h4v1h-4z M5 7h8v1h-8z M17 7h7v1h-7z M5 8h8v1h-8z M17 8h7v1h-7z M7 9h6v1h-6z M17 9h6v1h-6z M7 10h6v1h-6z M17 10h5v1h-5z M9 11h6v1h-6z M17 11h4v1h-4z M9 12h6v1h-6z M17 12h3v1h-3z" fill="#89ce8d"/>
    <g transform="translate(37,0)">
      <path d="M10 0h1v1h-1z M10 1h1v1h-1z M6 2h1v1h-1z M5 3h2v1h-2z M3 5h2v1h-2z M1 7h2v1h-2z M1 8h1v1h-1z M27 9h1v1h-1z M1 11h1v1h-1z M1 12h1v1h-1z M23 13h1v1h-1z M23 14h1v1h-1z M8 15h1v1h-1z" fill="#2d4a2e"/>
      <path d="M11 0h14v1h-14z M11 1h14v1h-14z M7 2h3v1h-3z M23 2h4v1h-4z M7 3h3v1h-3z M23 3h4v1h-4z M5 4h2v1h-2z M25 4h3v1h-3z M27 5h1v1h-1z M3 6h2v1h-2z M27 6h1v1h-1z M27 7h1v1h-1z M2 8h1v1h-1z M27 8h1v1h-1z M0 9h3v1h-3z M25 9h2v1h-2z M0 10h3v1h-3z M25 10h2v1h-2z M2 11h3v1h-3z M23 11h2v1h-2z M2 12h3v1h-3z M23 12h2v1h-2z M5 13h3v1h-3z M20 13h3v1h-3z M5 14h4v1h-4z M20 14h3v1h-3z M9 15h11v1h-11z" fill="#4d784e"/>
      <path d="M10 2h13v1h-13z M10 3h5v1h-5z M16 3h3v1h-3z M20 3h3v1h-3z M7 4h3v1h-3z M22 4h3v1h-3z M5 5h4v1h-4z M14 5h2v1h-2z M23 5h4v1h-4z M5 6h3v1h-3z M24 6h3v1h-3z M3 7h2v1h-2z M24 7h3v1h-3z M3 8h2v1h-2z M24 8h3v1h-3z M3 9h2v1h-2z M22 9h3v1h-3z M3 10h4v1h-4z M22 10h3v1h-3z M5 11h3v1h-3z M20 11h3v1h-3z M5 12h4v1h-4z M20 12h3v1h-3z M8 13h12v1h-12z M9 14h11v1h-11z" fill="#6ba36d"/>
      <path d="M15 3h1v1h-1z M19 3h1v1h-1z M10 4h2v1h-2z M14 4h8v1h-8z M9 5h3v1h-3z M16 5h7v1h-7z M8 6h4v1h-4z M16 6h8v1h-8z M5 7h7v1h-7z M16 7h8v1h-8z M5 8h7v1h-7z M16 8h8v1h-8z M5 9h7v1h-7z M16 9h6v1h-6z M7 10h5v1h-5z M16 10h6v1h-6z M8 11h4v1h-4z M14 11h6v1h-6z M9 12h3v1h-3z M14 12h6v1h-6z" fill="#89ce8d"/>
    </g>
  </g>
</svg>
